<svg id="Layer_1" data-name="Layer 1" xmlns="http://www.w3.org/2000/svg" xmlns:xlink="http://www.w3.org/1999/xlink" viewBox="0 0 556.63 101.42"><defs><style>.cls-1{fill:#fff;}.cls-2{fill:url(#linear-gradient);}</style><linearGradient id="linear-gradient" x1="497.08" y1="102.74" x2="497.08" y2="1.32" gradientUnits="userSpaceOnUse"><stop offset="0" stop-color="#dfe3eb"/><stop offset="0.44" stop-color="#a4c6d3"/><stop offset="1" stop-color="#7ea8ad"/></linearGradient></defs><title>TF2_logo</title><polygon class="cls-1" points="144.67 25.24 89.08 25.24 89.08 35.4 109.49 35.4 109.49 76.2 119.65 76.2 119.65 35.4 140.06 35.4 144.67 25.24"/><polygon class="cls-1" points="0 35.4 20.41 35.4 20.41 76.2 30.57 76.2 30.57 35.4 50.98 35.4 50.98 25.24 0 25.24 0 35.4"/><polygon class="cls-1" points="394.87 25.24 384.71 25.24 384.71 76.2 423.19 76.2 423.19 66.05 394.87 66.05 394.87 25.24"/><polygon class="cls-1" points="445.46 25.24 435.3 25.24 435.3 76.2 473.79 76.2 473.79 66.05 445.46 66.05 445.46 25.24"/><polygon class="cls-1" points="286.64 35.4 319.43 35.4 323.98 25.24 276.48 25.24 276.48 76.2 286.64 76.2 286.64 58.41 304.13 58.41 304.13 48.25 286.64 48.25 286.64 35.4"/><polygon class="cls-1" points="262.44 25.24 252.28 25.24 252.28 66.03 211.53 25.26 204.29 25.26 204.29 76.2 214.45 76.2 214.45 42.68 247.95 76.2 262.44 76.2 262.44 76.19 262.44 25.24"/><polygon class="cls-1" points="166 38.29 178.5 66.09 163.72 66.09 168.27 76.2 194.78 76.2 171.87 25.27 160.12 25.27 137.21 76.2 148.95 76.2 166 38.29"/><polygon class="cls-1" points="344.96 38.29 332.45 66.09 347.23 66.09 342.69 76.2 316.18 76.2 339.08 25.27 350.84 25.27 373.74 76.2 362 76.2 344.96 38.29"/><rect class="cls-1" x="65.32" y="25.23" width="10.16" height="50.97"/><path class="cls-1" d="M530.06,41.8a8.19,8.19,0,0,1,.82-3,6.28,6.28,0,0,1,.88-1.31,6.19,6.19,0,0,1,2.31-1.63,12.53,12.53,0,0,1,4.91-.84,11.73,11.73,0,0,1,4,.63,6.59,6.59,0,0,1,1.8,1,5,5,0,0,1,1.5,1.87,5.64,5.64,0,0,1,.5,2.37,6.5,6.5,0,0,1-.64,2.79,6.12,6.12,0,0,1-1.81,2.24h0l-24.64,18.8V77.59h0.23l13.57-10.36h0l17.12-13.06a16.48,16.48,0,0,0,4.87-6,16.85,16.85,0,0,0,1.66-7.27,16.05,16.05,0,0,0-1.15-6,15.46,15.46,0,0,0-6.26-7.4,17.94,17.94,0,0,0-4.95-2.09,23.09,23.09,0,0,0-5.83-.71,25.24,25.24,0,0,0-5.79.63,17.76,17.76,0,0,0-7.63,3.79,16.27,16.27,0,0,0-3.4,4.09A18.15,18.15,0,0,0,520,38.88a16.9,16.9,0,0,0-.33,2.92h10.37Z" transform="translate(-0.84 -1.32)"/><polygon class="cls-1" points="541 65.91 527.43 76.27 556.63 76.27 556.63 65.91 541 65.91"/><path class="cls-1" d="M462.48,23.1a3.72,3.72,0,1,1-3.82,3.71A3.69,3.69,0,0,1,462.48,23.1Zm0,6.64a2.92,2.92,0,1,0-2.8-2.93A2.82,2.82,0,0,0,462.48,29.74Zm-1.48-5h1.57c1,0,1.63.33,1.63,1.23a1,1,0,0,1-1.09,1.11l1.11,1.82h-0.87l-1-1.78h-0.52v1.78H461V24.72Zm0.82,1.74h0.74c0.47,0,.81-0.07.81-0.58s-0.48-.52-0.85-0.52h-0.7v1.09Z" transform="translate(-0.84 -1.32)"/><path class="cls-2" d="M494.54,5.2l5.08-3.88V98.86l-5.08,3.88V5.2Z" transform="translate(-0.84 -1.32)"/></svg>